<svg xmlns="http://www.w3.org/2000/svg" viewBox="0 0 1200 720" role="img" aria-labelledby="title desc">
  <title id="title">Banner utama VitaNusa AI</title>
  <desc id="desc">Ilustrasi edukasi kesehatan digital VitaNusa AI.</desc>
  <defs>
    <linearGradient id="bg" x1="0" x2="1" y1="0" y2="1">
      <stop offset="0%" stop-color="#0f3d2e"/>
      <stop offset="55%" stop-color="#18734f"/>
      <stop offset="100%" stop-color="#2bbb7f"/>
    </linearGradient>
    <linearGradient id="gold" x1="0" x2="1">
      <stop offset="0%" stop-color="#ffe0a4"/>
      <stop offset="100%" stop-color="#fff4d6"/>
    </linearGradient>
  </defs>
  <rect width="1200" height="720" rx="54" fill="url(#bg)"/>
  <circle cx="1010" cy="150" r="150" fill="#ffffff" opacity="0.12"/>
  <circle cx="1080" cy="620" r="220" fill="#ffe0a4" opacity="0.16"/>
  <circle cx="150" cy="620" r="190" fill="#ffffff" opacity="0.10"/>
  <rect x="90" y="95" width="1020" height="530" rx="42" fill="#ffffff" opacity="0.11" stroke="#ffffff" stroke-opacity="0.24"/>
  <g transform="translate(120 130)">
    <rect width="310" height="310" rx="52" fill="#ffffff" opacity="0.95"/>
    <path d="M155 64c47 0 86 38 86 86 0 77-86 137-86 137S69 227 69 150c0-48 39-86 86-86Z" fill="#18734f" opacity="0.95"/>
    <path d="M155 101v96M107 149h96" stroke="#ffe0a4" stroke-width="28" stroke-linecap="round"/>
    <circle cx="245" cy="78" r="34" fill="#ffe0a4"/>
  </g>
  <g fill="#ffffff" transform="translate(485 165)">
    <text x="0" y="0" font-family="system-ui, -apple-system, Segoe UI, Arial, sans-serif" font-size="62" font-weight="900">VitaNusa AI</text>
    <text x="0" y="78" font-family="system-ui, -apple-system, Segoe UI, Arial, sans-serif" font-size="36" font-weight="700" fill="#fff4d6">Edukasi kesehatan digital yang amanah</text>
    <text x="0" y="145" font-family="system-ui, -apple-system, Segoe UI, Arial, sans-serif" font-size="25" fill="#eef8f1">VitaCheck • Artikel • VitaStory • Katalog produk</text>
    <rect x="0" y="205" width="360" height="66" rx="33" fill="url(#gold)"/>
    <text x="38" y="248" font-family="system-ui, -apple-system, Segoe UI, Arial, sans-serif" font-size="25" font-weight="850" fill="#09251e">Mulai hidup lebih bijak</text>
  </g>
</svg>
